<svg xmlns="http://www.w3.org/2000/svg" xmlns:xlink="http://www.w3.org/1999/xlink" viewBox="0 0 155.02 45.93">
  <defs>
    <linearGradient id="a" x1="25.03" y1="191.42" x2="5.76" y2="172.15" gradientTransform="matrix(1, 0, 0, -1, 0, 201.42)" gradientUnits="userSpaceOnUse">
      <stop offset="0" stop-color="#00a0ff"/>
      <stop offset="0.01" stop-color="#00a1ff"/>
      <stop offset="0.26" stop-color="#00beff"/>
      <stop offset="0.51" stop-color="#00d2ff"/>
      <stop offset="0.76" stop-color="#00dfff"/>
      <stop offset="1" stop-color="#00e3ff"/>
    </linearGradient>
    <linearGradient id="b" x1="38.85" y1="178.45" x2="11.07" y2="178.45" gradientTransform="matrix(1, 0, 0, -1, 0, 201.42)" gradientUnits="userSpaceOnUse">
      <stop offset="0" stop-color="#ffe000"/>
      <stop offset="0.41" stop-color="#ffbd00"/>
      <stop offset="0.78" stop-color="orange"/>
      <stop offset="1" stop-color="#ff9c00"/>
    </linearGradient>
    <linearGradient id="c" x1="28.51" y1="175.82" x2="2.38" y2="149.68" gradientTransform="matrix(1, 0, 0, -1, 0, 201.42)" gradientUnits="userSpaceOnUse">
      <stop offset="0" stop-color="#ff3a44"/>
      <stop offset="1" stop-color="#c31162"/>
    </linearGradient>
    <linearGradient id="d" x1="8.38" y1="201.22" x2="20.05" y2="189.55" gradientTransform="matrix(1, 0, 0, -1, 0, 201.42)" gradientUnits="userSpaceOnUse">
      <stop offset="0" stop-color="#32a071"/>
      <stop offset="0.07" stop-color="#2da771"/>
      <stop offset="0.48" stop-color="#15cf74"/>
      <stop offset="0.8" stop-color="#06e775"/>
      <stop offset="1" stop-color="#00f076"/>
    </linearGradient>
  </defs>
  <title>Asset 6</title>
  <g>
    <rect width="155.02" height="45.93" rx="5.74" ry="5.74"/>
    <path d="M149.28.92a4.82,4.82,0,0,1,4.82,4.82V40.19A4.82,4.82,0,0,1,149.28,45H5.74A4.82,4.82,0,0,1,.92,40.19V5.74A4.82,4.82,0,0,1,5.74.92H149.28m0-.92H5.74A5.75,5.75,0,0,0,0,5.74V40.19a5.75,5.75,0,0,0,5.74,5.74H149.28A5.75,5.75,0,0,0,155,40.19V5.74A5.75,5.75,0,0,0,149.28,0Z" style="fill: #a6a6a6"/>
    <g>
      <path d="M54.45,11.76a3.11,3.11,0,0,1-.85,2.3,3.36,3.36,0,0,1-2.54,1,3.55,3.55,0,0,1-3.58-3.6,3.57,3.57,0,0,1,3.58-3.6,3.61,3.61,0,0,1,1.42.29,2.93,2.93,0,0,1,1.08.77L53,9.55a2.32,2.32,0,0,0-1.89-.82,2.67,2.67,0,0,0-2.67,2.75,2.71,2.71,0,0,0,4.6,2,2.25,2.25,0,0,0,.58-1.4H51.06v-.83H54.4A2.4,2.4,0,0,1,54.45,11.76Z" style="fill: #fff;stroke: #fff;stroke-miterlimit: 10;stroke-width: 0.2px"/>
      <path d="M59.74,8.88H56.61v2.19h2.83v.83H56.61v2.18h3.13v.85h-4V8h4Z" style="fill: #fff;stroke: #fff;stroke-miterlimit: 10;stroke-width: 0.2px"/>
      <path d="M63.48,14.93h-.89v-6H60.67V8H65.4v.84H63.48Z" style="fill: #fff;stroke: #fff;stroke-miterlimit: 10;stroke-width: 0.2px"/>
      <path d="M68.83,14.93V8h.88v6.89Z" style="fill: #fff;stroke: #fff;stroke-miterlimit: 10;stroke-width: 0.2px"/>
      <path d="M73.64,14.93h-.89v-6H70.83V8h4.73v.84H73.64Z" style="fill: #fff;stroke: #fff;stroke-miterlimit: 10;stroke-width: 0.2px"/>
      <path d="M84.53,14a3.6,3.6,0,0,1-5.06,0,3.56,3.56,0,0,1-1-2.56,3.54,3.54,0,0,1,1-2.55,3.56,3.56,0,0,1,5,0,3.52,3.52,0,0,1,1,2.55A3.56,3.56,0,0,1,84.53,14Zm-4.4-.58a2.63,2.63,0,0,0,3.74,0,2.71,2.71,0,0,0,.77-2,2.68,2.68,0,0,0-.77-2,2.63,2.63,0,0,0-3.74,0,2.68,2.68,0,0,0-.77,2A2.71,2.71,0,0,0,80.13,13.46Z" style="fill: #fff;stroke: #fff;stroke-miterlimit: 10;stroke-width: 0.2px"/>
      <path d="M86.78,14.93V8h1.08l3.35,5.36h0l0-1.33V8h.89v6.89h-.93l-3.5-5.62h0l0,1.33v4.29Z" style="fill: #fff;stroke: #fff;stroke-miterlimit: 10;stroke-width: 0.2px"/>
    </g>
    <path d="M78.24,25a4.89,4.89,0,1,0,4.9,4.88A4.81,4.81,0,0,0,78.24,25Zm0,7.84a3,3,0,1,1,2.76-3A2.83,2.83,0,0,1,78.24,32.82ZM67.55,25a4.89,4.89,0,1,0,4.9,4.88A4.82,4.82,0,0,0,67.55,25Zm0,7.84a3,3,0,1,1,2.75-3A2.83,2.83,0,0,1,67.55,32.82ZM54.82,26.48v2.07h5a4.33,4.33,0,0,1-1.13,2.61,5.08,5.08,0,0,1-3.83,1.51,5.51,5.51,0,0,1,0-11,5.3,5.3,0,0,1,3.74,1.48L60,21.67a7.19,7.19,0,0,0-5.2-2.09,7.59,7.59,0,1,0,0,15.17,7,7,0,0,0,5.3-2.13,6.88,6.88,0,0,0,1.79-4.85,7.05,7.05,0,0,0-.11-1.29Zm52,1.61A4.51,4.51,0,0,0,102.67,25a4.64,4.64,0,0,0-4.6,4.88,4.78,4.78,0,0,0,4.84,4.89A4.84,4.84,0,0,0,107,32.58l-1.66-1.11a2.79,2.79,0,0,1-2.41,1.35,2.49,2.49,0,0,1-2.37-1.48l6.53-2.7Zm-6.66,1.62a2.69,2.69,0,0,1,2.56-2.85,1.89,1.89,0,0,1,1.81,1Zm-5.31,4.74H97V20.09H94.88Zm-3.51-8.38h-.08A3.38,3.38,0,0,0,88.72,25a4.89,4.89,0,0,0,0,9.77,3.32,3.32,0,0,0,2.57-1.11h.08v.7c0,1.87-1,2.87-2.61,2.87a2.71,2.71,0,0,1-2.46-1.74l-1.87.77a4.65,4.65,0,0,0,4.33,2.89c2.52,0,4.64-1.48,4.64-5.09V25.27h-2Zm-2.46,6.75a3,3,0,0,1,0-5.92,2.76,2.76,0,0,1,2.61,3A2.73,2.73,0,0,1,88.91,32.82Zm28-12.73h-5.13V34.45h2.14V29h3a4.47,4.47,0,1,0,0-8.92ZM117,27h-3V22.09h3A2.46,2.46,0,1,1,117,27ZM130.2,25a4,4,0,0,0-3.82,2.2l1.9.79a2,2,0,0,1,2-1.05,2.06,2.06,0,0,1,2.25,1.85v.15a4.64,4.64,0,0,0-2.23-.56c-2,0-4.14,1.13-4.14,3.23a3.32,3.32,0,0,0,3.56,3.16,3,3,0,0,0,2.74-1.4h.07v1.11h2.07V28.92C134.56,26.37,132.66,25,130.2,25Zm-.26,7.87c-.7,0-1.68-.35-1.68-1.22,0-1.11,1.22-1.53,2.27-1.53a3.77,3.77,0,0,1,2,.48A2.59,2.59,0,0,1,129.94,32.82Zm12.16-7.55-2.46,6.22h-.07L137,25.27h-2.31L138.53,34l-2.18,4.84h2.24l5.89-13.53Zm-19.3,9.18h2.14V20.09H122.8Z" style="fill: #fff"/>
    <g>
      <path d="M12,8.66a2.3,2.3,0,0,0-.53,1.61v25.4A2.3,2.3,0,0,0,12,37.28l.09.08L26.29,23.14V22.8L12.07,8.57Z" style="fill: url(#a)"/>
      <path d="M31,27.88l-4.75-4.74V22.8L31,18.06l.1.06,5.62,3.19c1.61.91,1.61,2.4,0,3.32l-5.62,3.19Z" style="fill: url(#b)"/>
      <path d="M31.14,27.82,26.29,23,12,37.28a1.87,1.87,0,0,0,2.39.07l16.77-9.53" style="fill: url(#c)"/>
      <path d="M31.14,18.12,14.37,8.59A1.87,1.87,0,0,0,12,8.66L26.29,23Z" style="fill: url(#d)"/>
      <g>
        <path d="M31,27.71,14.37,37.18a1.9,1.9,0,0,1-2.3,0h0l-.09.09h0l.09.08h0a1.91,1.91,0,0,0,2.3,0l16.77-9.53Z" style="opacity: 0.2;isolation: isolate"/>
        <path d="M12,37.11a2.3,2.3,0,0,1-.53-1.61v.17A2.3,2.3,0,0,0,12,37.28l.09-.09Z" style="opacity: 0.12;isolation: isolate"/>
      </g>
      <path d="M36.76,24.46,31,27.71l.1.11,5.62-3.19A2,2,0,0,0,38,23h0A2.17,2.17,0,0,1,36.76,24.46Z" style="opacity: 0.12;isolation: isolate"/>
      <path d="M14.37,8.75,36.76,21.48A2.13,2.13,0,0,1,38,23h0a2,2,0,0,0-1.21-1.66L14.37,8.59c-1.61-.92-2.92-.16-2.92,1.68v.17C11.45,8.6,12.76,7.84,14.37,8.75Z" style="fill: #fff;opacity: 0.25;isolation: isolate"/>
    </g>
  </g>
</svg>
