<?xml version="1.0" encoding="utf-8"?>
<!-- Generator: Adobe Illustrator 28.6.0, SVG Export Plug-In . SVG Version: 9.03 Build 54939)  -->
<svg version="1.1" id="Layer_1" xmlns="http://www.w3.org/2000/svg" xmlns:xlink="http://www.w3.org/1999/xlink" x="0px" y="0px"
 viewBox="0 0 564.2 162" style="enable-background:new 0 0 564.2 162;" xml:space="preserve">
<style type="text/css">
.st0{fill:#000000;}
.st1{fill:#000000;}
.st2{fill:#000000;}
.st3{fill-rule:evenodd;clip-rule:evenodd;fill:#FFFFFF;}
.st4{fill:#FFFFFF;}
</style>
<g id="SignalStuff">
  <g id="Signal">
    <path id="Path_00000138547078569291455970000005158217929582408361_" class="st3" d="M52.4,0L58,13.2l1.6-4h12.5
      c0.7-2,2.6-3.3,4.6-3.3c2.6,0,4.9,2.3,4.9,4.9s-2.3,4.9-4.9,4.9c-2.3,0-4-1.3-4.6-3.3H62l-4,9.2L52.4,8.6l-5.6,13.2L41.2,8.6
      l-5.6,13.2L30,8.6l-1,4H16.5c-0.7,1.3-1.6,2.6-3,3v6.9l10.2,3.3L10.5,30l13.2,4.3l-13.2,4.3l13.2,4.3l-13.2,4.3l3,1v9.6
      c1.3,0.7,2.3,1.6,3,3H27l4-9.2l5.6,13.2l5.6-13.2l5.6,13.2l5.6-13.2L59,64.6l1.6-4h12.5c0.7-2,2.6-3.3,4.6-3.3
      c2.6,0,4.9,2.3,4.9,4.9c0,2-1.3,4-3.3,4.6v6.9l10.2,3.3l-13.2,4.3l13.2,4.3L76.5,90l13.2,4.3l-13.2,4.3l3,1v9.6
      c2,0.7,3.3,2.6,3.3,4.6c0,2.6-2.3,4.9-4.9,4.9c-2.3,0-4-1.3-4.6-3.3H62.9l-4,9.2l-5.6-13.2l-5.6,13.2l-5.6-13.2l-5.6,13.2
      L31,111.4l-2,5.3H16.5c-0.7,2-2.6,3.3-4.6,3.3c-2.6,0-4.9-2.3-4.9-4.9c0-2.6,2.3-4.9,4.9-4.9c2,0,4,1.3,4.6,3.3H27l4-9.2
      l5.6,13.2l5.6-13.2l5.6,13.2l5.6-13.2l5.6,13.2l1.6-4h12.5c0.7-1.3,1.6-2.6,3-3v-6.9l-10.2-3.3l13.2-4.3l-13.2-4.3l13.2-4.3
      l-13.2-4.3l13.2-4.3l-3-1v-9.6c-1.3-0.3-2.6-1.6-3-3H62.9l-4,9.2l-5.6-13.2l-5.6,13.2l-5.6-13.2l-5.6,13.2L31,61.3l-2,3.3H16.5
      c-0.7,2-2.6,3.3-4.6,3.3c-2.6,0-4.9-2.3-4.9-4.9c0-2.3,1.3-4,3.3-4.6v-6.9L0,48.1l13.2-4.3L0,39.5l13.2-4.3L0,31l13.2-4.3l-3-1.6
      v-9.6c-2-0.7-3.3-2.6-3.3-4.6c0-2.6,2.3-4.9,4.9-4.9c2,0,4,1.3,4.6,3.3H27L31,0l5.6,13.2L42.2,0l5.6,13.2L52.4,0z"/>
    <path id="Shape_00000158016806662142920860000010873825439955414197_" class="st4" d="M105.5,43.2v0.7c0,3-1,4-4,4h-0.7
      c-3,0-4-1-4-4v-0.7c0-3,1-4,4-4h0.7C104.8,39.5,105.5,40.2,105.5,43.2z M105.1,60v49.4c0,1.3-0.7,2-2,2h-3.3c-1.3,0-2-0.3-2-2V60
      c0-1.3,0.7-2,2-2h3.3C104.5,58.3,105.1,58.7,105.1,60z"/>
    <path id="Shape_00000093875025696338878930000009502448131372621706_" class="st4" d="M139.4,56.7c5.9,0,11.9,1,17.5,3
      c3.3,1.3,4,2.3,4,5.6v49.4c0,13.5-6.3,22.4-21.8,22.4c-8.6,0.7-16.8-3.6-20.4-11.2c-0.3-0.3-0.7-1-0.7-1.6s0.7-1.3,1.3-1.3l2.3-1
      c0.3-0.3,1-0.7,1.6-0.3c0.7,0,1,0.7,1.3,1c2.6,5.6,8.2,8.9,14.5,8.2c10.5,0,15.2-6.3,15.2-15.8v-6.3c-5.3,2-10.9,3-16.5,3
      c-14.2,0-20.4-7.6-20.4-20.1V78.1C117,63.9,123.9,56.7,139.4,56.7z M139.7,62.9c-10.9,0-15.8,4.9-15.8,14.8v13.5
      c-0.7,4,0.7,7.9,3.6,10.5c3,2.6,6.9,4,10.5,3.3c5.3,0,10.5-1,15.5-3V67.9c0-1.6,0-2-2-2.6C148,63.6,143.7,62.9,139.7,62.9
      L139.7,62.9z"/>
    <path id="Shape_00000044874235327984161310000017201049124948991155_" class="st4" d="M197.4,56.7c14.2,0,20.8,7.6,20.8,20.4
      v32.6c0,1.3-0.7,2-2,2h-3.3c-1.6,0-2-0.3-2-2V77.4c0-9.2-4.6-14.2-14.5-14.2c-4.6,0-9.2,0.7-13.8,2.3c-1,0.3-1.6,1.3-1.6,2.6
      v41.5c0,1.3-0.7,2-2,2h-3.3c-1.3,0-2-0.3-2-2V65.9c0-3.3,1-4.3,4-5.6C184.2,57.7,190.8,56.7,197.4,56.7L197.4,56.7z"/>
    <path id="Shape_00000000181914120568134820000015739226467696554630_" class="st4" d="M250.8,56.7c16.5,0,20.8,9.2,20.8,20.4v27
      c0,3.6-1,4.6-3.6,6.3c-5.6,2-11.2,3-17.1,2.6c-18.1,0-22.4-5.6-22.4-15.8c0-11.9,6.6-16.1,22.7-16.1c4.6,0,8.9,0.3,13.5,1v-4.9
      c0-7.9-2.6-14.2-13.8-14.2c-5.9-0.7-11.5,2.3-14.5,7.3c-0.7,1-1.3,1.3-2.6,0.7l-2.6-0.7c-1.3-0.7-1.6-1.3-1-2.6
      C234.3,60,242.2,56,250.8,56.7L250.8,56.7z M250.5,86.7c-11.2,0-14.8,3-14.8,10.2c0,7.3,2.6,10.2,14.8,10.2
      c4.3,0,8.2-0.3,12.5-1.6c1.6-0.7,2-1,2-3V87.7C259.7,87,255.1,86.7,250.5,86.7L250.5,86.7z"/>
    <path id="Shape_00000161604489010297189700000000988081340846718398_" class="st4" d="M290,111.4h-3.3c-1.6,0-2-0.3-2-2V36.6
      c0-1.3,0.3-2,2-2h3.3c1.3,0,2,0.3,2,2v72.8C291.7,111.1,291.3,111.4,290,111.4z"/>
  </g>
  <g id="Stuff" transform="translate(92.000000, 0.000000)">
    <path id="Path_00000170246481190356528970000010644563854942859188_" class="st3" d="M264.9,0l5.6,13.2l1.6-4h12.5
      c0.7-2,2.6-3.3,4.6-3.3c2.6,0,4.9,2.3,4.9,4.9s-2.3,4.9-4.9,4.9c-2.3,0-4-1.3-4.6-3.3h-10.2l-4,9.2l-5.6-13.2l-5.6,13.2
      l-5.6-13.2l-5.6,13.2l-5.6-13.2l-1.3,4h-12.5c-0.7,1.3-1.6,2.6-3,3v6.9l10.2,3.3L222.7,30l13.2,4.3l-13.2,4.3l13.2,4.3l-13.2,4.3
      l3,1v9.6c1.3,0.7,2.3,1.6,3,3h10.5l4-9.2l5.6,13.2l5.6-13.2l5.6,13.2l5.6-13.2l5.6,13.2l1.6-4h12.5c0.7-2,2.6-3.3,4.6-3.3
      c2.6,0,4.9,2.3,4.9,4.9c0,2-1.3,4-3.3,4.6v6.9l10.2,3.3l-13.2,4.3l13.2,4.3L288.7,90l13.2,4.3l-13.2,4.3l3,1v9.6
      c2,0.7,3.3,2.6,3.3,4.6c0,2.6-2.3,4.9-4.9,4.9c-2.3,0-4-1.3-4.6-3.3h-10.2l-4,9.2l-5.6-13.2l-5.6,13.2l-5.6-13.2l-5.6,13.2
      l-5.6-13.2l-1.6,4H229c-0.7,2-2.6,3.3-4.6,3.3c-2.6,0-4.9-2.3-4.9-4.9c0-2.6,2.3-4.9,4.9-4.9c2,0,4,1.3,4.6,3.3h10.5l4-9.2
      l5.6,13.2l5.6-13.2l5.6,13.2l5.6-13.2l5.6,13.2l1.6-4h12.5c0.7-1.3,1.6-2.6,3-3v-6.9l-10.2-3.3l13.2-4.3l-13.2-4.3l13.2-4.3
      l-13.2-4.3l13.2-4.3l-3-1v-9.6c-1.3-0.3-2.6-1.6-3-3h-10.2l-4,9.2L265.9,60l-5.6,13.2L254.7,60l-5.6,13.2L243.5,60l-1.6,4h-12.5
      c-0.7,2-2.6,3.3-4.6,3.3c-2.6,0-4.9-2.3-4.9-4.9c0-2.3,1.3-4,3.3-4.6v-6.9l-10.2-3.3l13.2-4.3l-13.2-4.3l13.2-4.3l-13.2-4.3
      L226,26l-3.6-1v-9.6c-2-0.7-3.3-2.6-3.3-4.6c0-2.6,2.3-4.9,4.9-4.9c2,0,4,1.3,4.6,3.3h10.5l4-9.2l5.6,13.2L254.4,0l5.6,13.2
      L264.9,0z"/>
    <path id="Shape_00000142146636845911190480000011433473759190686367_" class="st4" d="M324.9,49.1v10.5h15.2c1.3,0,2,0.3,2,2v2.6
      c0,1.3-0.7,2-2,2h-15.2v27c0,12.2,3.6,14.5,14.8,14.5c1.6,0,2,0.7,2,2v2.6c0,1.3-0.3,2-2,2c-15.8,0.3-21.8-4.6-21.8-21.1v-27
      h-9.9c-1.3,0-2-0.3-2-2v-2.6c0-1.3,0.7-2,2-2h9.9V49.1c0-1.3,0.7-2,2-2h3.3C324.3,47.5,324.9,47.8,324.9,49.1z"/>
    <path id="Shape_00000105393496201754660880000006045354966610198664_" class="st4" d="M393.1,61.6v43.5c0,3.3-1,4.3-4,5.6
      c-6.3,2.3-12.9,3.6-19.4,3.3c-14.2,0-20.4-7.6-20.4-20.1V61.3c0-1.3,0.3-2,2-2h3.3c1.3,0,2,0.3,2,2v32.3c-0.7,4,0.7,7.9,3.6,10.9
      c3,2.6,6.9,4,10.9,3.3c4.6,0,9.2-0.7,13.5-2.3c1.3-0.3,2-1.6,2-3V61.6c0-1.3,0.7-2,2-2h3.3C392.5,59.7,393.1,60.3,393.1,61.6z"/>
    <path id="Shape_00000073682845188415239120000002831457933629084040_" class="st4" d="M435.3,38.2v2.6c0,1.3-0.3,2-2,2
      c-11.2,0-14.8,3.3-14.8,14.2v2.6h15.2c1.6,0,2,0.3,2,2v2.6c0,1.3-0.3,2-2,2h-15.2v44.8c0,1.3-0.3,2-2,2h-3.3c-1.3,0-2-0.3-2-2
      V66.2H402c-1.6,0-2-0.3-2-2v-2.6c0-1.3,0.3-2,2-2h9.6V57c0-14.8,6.3-20.4,21.1-20.8h0.7C435,36.3,435.3,36.9,435.3,38.2z"/>
    <path id="Shape_00000014599219842853648140000004248930182016475047_" class="st4" d="M471.9,38.2v2.6c0,1.3-0.3,2-2,2
      c-11.2,0-14.8,3.3-14.8,14.2v2.6h15.2c1.6,0,2,0.3,2,2v2.6c0,1.3-0.3,2-2,2h-14.8v44.8c0,1.3-0.3,2-2,2h-3.3c-1.3,0-2-0.3-2-2
      V66.2h-9.2c-1.3,0-2-0.3-2-2v-2.6c0-1.3,0.3-2,2-2h9.2V57c0-14.8,6.3-20.4,20.8-20.8h1C471.6,36.3,471.9,36.9,471.9,38.2z"/>
  </g>
</g>
<g id="antenna">
  <rect x="48.9" y="151.6" class="st0" width="497.1" height="2.9"/>
  <polygon class="st1" points="13.1,148.7 8.2,148.7 8.2,158.1 14.1,158.1 13.4,148.7 "/>
  <path class="st1" d="M542.4,153.2L542.4,153.2c0-1.6,0.3-2.9,2-2.9h8.8c1.6,0,2.9,1.3,2.9,2.9l0,0c0,1.6-1.3,2.9-2.9,2.9h-8.8
    C542.7,156.1,542.4,154.8,542.4,153.2z"/>
  <path class="st2" d="M47.6,149.3l-2.3-1.3c-0.7-0.3-1.3-0.7-2-0.7h-6.8c-1,0-2-0.3-2.9-0.7l-5.5-2.3c-0.3-0.3-1-0.3-1.3-0.3H13.1
    c-0.3,0-0.3,0-0.3,0.3l0,17.2c0,0.3,0,0.3,0.3,0.3h13.7c0.3,0,1,0,1.3-0.3l5.5-2.3c1-0.3,2-0.7,2.9-0.7h6.8c0.7,0,1.3-0.3,2-0.7
    l2.3-1.3c1-0.7,1.3-1.6,1.3-2.6l0-2.9C48.9,150.6,48.5,149.6,47.6,149.3z"/>
</g>
</svg>