<?xml version="1.0" encoding="utf-8"?>
<!-- Generator: Adobe Illustrator 24.0.1, SVG Export Plug-In . SVG Version: 6.00 Build 0)  -->
<svg version="1.1" id="Layer_1" xmlns="http://www.w3.org/2000/svg" xmlns:xlink="http://www.w3.org/1999/xlink" x="0px" y="0px"
	 viewBox="0 0 189 36" style="enable-background:new 0 0 189 36;" xml:space="preserve">
<style type="text/css">
	.st0{fill-rule:evenodd;clip-rule:evenodd;fill:#C79100;}
	.st1{fill:#C79100;}
	.st2{fill-rule:evenodd;clip-rule:evenodd;fill:#231F20;}
	.st3{fill:#231F20;}
</style>
<title>ExamTools</title>
<g id="ExamTools" class="examtools_logo">
  <polygon id="Fill-114" class="st0" points="68.6,15.5 72.4,15.5 78.5,25 84.7,15.5 88.4,15.5 88.4,35.7 84.9,35.7 84.9,21.2
    78.5,30.7 78.4,30.7 72.1,21.2 72.1,35.7 68.6,35.7 "/>
  <path id="Fill-116" class="st0" d="M47.4,26.2l4.9-11.1l4.9,11.1H47.4z M64.1,33.2L53.7,9.6c1-0.5,1.7-1.6,1.7-2.8
    c0-1.7-1.4-3.1-3.1-3.1c-1.7,0-3.1,1.4-3.1,3.1c0,1.2,0.7,2.3,1.7,2.8L40.5,33.2c-0.4,0.9,0,1.9,0.9,2.3c0.9,0.4,1.9,0,2.3-0.9
    l2.2-4.9h12.9l2.2,4.9c0.3,0.7,0.9,1,1.6,1c0.2,0,0.5,0,0.7-0.1C64.1,35.1,64.5,34.1,64.1,33.2L64.1,33.2z"/>
  <path id="Fill-118" class="st0" d="M39.7,0.3c0.1-0.2,0.5-0.3,0.7-0.2c0.3,0.1,0.3,0.5,0.2,0.7c-1,1.7-1.6,3.7-1.6,5.8
    c0,1.9,0.5,3.8,1.4,5.4c0.1,0.1,0.1,0.3,0,0.4s-0.1,0.2-0.3,0.3c-0.1,0-0.2,0.1-0.3,0.1c-0.2,0-0.4-0.1-0.5-0.3
    c-1-1.8-1.5-3.9-1.5-5.9C38,4.4,38.6,2.2,39.7,0.3"/>
  <path id="Fill-120" class="st0" d="M45.2,10.8c0.1,0,0.2,0,0.3-0.1c0.3-0.1,0.4-0.4,0.2-0.7c-0.6-1-0.9-2.2-0.9-3.4
    c0-1.3,0.4-2.7,1.2-3.8c0.2-0.2,0.1-0.6-0.2-0.7C45.5,1.9,45.2,2,45,2.3c-0.9,1.3-1.3,2.8-1.3,4.4c0,1.3,0.4,2.7,1,3.9
    C44.9,10.7,45,10.8,45.2,10.8"/>
  <path id="Fill-122" class="st0" d="M64.6,0.3c-0.1-0.2-0.5-0.3-0.7-0.2c-0.3,0.1-0.3,0.5-0.2,0.7c1,1.7,1.6,3.7,1.6,5.8
    c0,1.9-0.5,3.8-1.4,5.4c-0.1,0.1-0.1,0.3,0,0.4c0,0.1,0.1,0.2,0.3,0.3c0.1,0,0.2,0.1,0.3,0.1c0.2,0,0.4-0.1,0.5-0.3
    c1-1.8,1.5-3.9,1.5-5.9C66.3,4.4,65.7,2.2,64.6,0.3"/>
  <path id="Fill-124" class="st0" d="M59,10.8c-0.1,0-0.2,0-0.3-0.1c-0.3-0.1-0.4-0.4-0.2-0.7c0.6-1,0.9-2.2,0.9-3.4
    c0-1.3-0.4-2.7-1.2-3.8c-0.2-0.2-0.1-0.6,0.2-0.7C58.7,1.9,59,2,59.2,2.3c0.9,1.3,1.3,2.8,1.3,4.4c0,1.3-0.4,2.7-1,3.9
    C59.4,10.7,59.2,10.8,59,10.8"/>
  <polygon class="st1" points="15.3,36 15.3,32.8 3.5,32.8 3.5,27.3 13.8,27.3 13.8,24.1 3.5,24.1 3.5,18.7 15.1,18.7 15.1,15.5
    -0.1,15.5 -0.1,36 "/>
  <polygon class="st1" points="22.1,36 27.5,28.2 32.9,36 37.2,36 29.7,25.5 36.9,15.5 32.7,15.5 27.6,22.9 22.5,15.5 18.3,15.5
    25.5,25.6 18,36 "/>
  <polygon id="T" class="st1" points="103.6,35 103.6,17.4 110.1,17.4 110.1,16.1 95.6,16.1 95.6,17.4 102.2,17.4 102.2,35 "/>
  <path id="O" class="st1" d="M121.7,35.3c5.7,0,9.5-4.6,9.5-9.7v-0.1c0-5.1-3.7-9.7-9.4-9.7c-5.7,0-9.5,4.6-9.5,9.7v0.1
    C112.3,30.8,116,35.3,121.7,35.3z M121.8,34c-4.7,0-8-3.8-8-8.5v-0.1c0-4.7,3.3-8.4,8-8.4s8,3.8,8,8.5v0.1
    C129.8,30.3,126.4,34,121.8,34z"/>
  <path id="O_1_" class="st1" d="M144.9,35.3c5.7,0,9.5-4.6,9.5-9.7v-0.1c0-5.1-3.7-9.7-9.4-9.7s-9.5,4.6-9.5,9.7v0.1
    C135.5,30.8,139.2,35.3,144.9,35.3z M145,34c-4.7,0-8-3.8-8-8.5v-0.1c0-4.7,3.3-8.4,8-8.4s8,3.8,8,8.5v0.1C153,30.3,149.6,34,145,34
    z"/>
  <polygon id="L" class="st1" points="172,35 172,33.7 160.9,33.7 160.9,16.1 159.5,16.1 159.5,35 "/>
  <path id="S" class="st1" d="M182.7,35.3c3.6,0,6.2-2.1,6.2-5.1v-0.1c0-2.7-1.8-4.3-6.2-5.2c-4.5-0.9-5.5-2.1-5.5-4.1v-0.1
    c0-2,1.8-3.6,4.6-3.6c2.1,0,3.8,0.6,5.6,2.1l0.9-1.1c-1.9-1.5-3.7-2.3-6.5-2.3c-3.5,0-6.1,2.2-6.1,5v0.1c0,2.9,1.8,4.4,6.3,5.3
    c4.3,0.9,5.3,2,5.3,4v0.1c0,2.2-1.9,3.7-4.8,3.7c-2.8,0-4.7-0.9-6.8-2.8l-0.9,1C177.4,34.3,179.7,35.3,182.7,35.3z"/>
</g>
</svg>
