<?xml version="1.0" encoding="utf-8"?>
<!-- Generator: Adobe Illustrator 24.0.1, SVG Export Plug-In . SVG Version: 6.00 Build 0)  -->
<svg version="1.1" baseProfile="basic" id="Layer_1"
	 xmlns="http://www.w3.org/2000/svg" xmlns:xlink="http://www.w3.org/1999/xlink" x="0px" y="0px" viewBox="0 0 169 36"
	 xml:space="preserve">
<style type="text/css">
	.st0{fill:#00BCD6;}
	.st1{fill-rule:evenodd;clip-rule:evenodd;fill:#231F20;}
	.st2{fill:#231F20;}
</style>
<title>HamStudy</title>
<g id="HamStudy" class="hamstudy_logo">
	<path id="Fill-102" class="st0" d="M73.8,32.8l0.7-0.7c2.1,2,4.5,3.1,7.4,3.1c3.5,0,5.8-1.9,5.8-4.4v-0.1c0-2.4-1.4-3.6-6.2-4.6
		c-4.9-1-6.9-2.5-6.9-5.5v-0.1c0-2.9,2.7-5.2,6.6-5.2c2.8,0,5,0.9,6.9,2.4l-0.6,0.8c-1.8-1.5-4-2.3-6.3-2.3c-3.3,0-5.5,2-5.5,4.2
		v0.1c0,2.3,1.4,3.6,6.3,4.6c5,1,6.8,2.6,6.8,5.5v0.1c0,3.1-2.7,5.4-6.8,5.4C78.7,36,76.1,34.9,73.8,32.8"/>
	<path id="Fill-104" class="st0" d="M98.5,16.4h-7.2v-0.9h15.4v0.9h-7.2v19.3h-1C98.5,35.7,98.5,16.4,98.5,16.4z"/>
	<path id="Fill-106" class="st0" d="M110.4,27V15.5h1V27c0,5.4,2.9,8.2,7.3,8.2s7.2-2.7,7.2-8.1V15.5h1v11.4c0,6-3.3,9.1-8.2,9.1
		C113.8,36,110.4,33,110.4,27"/>
	<path id="Fill-108" class="st0" d="M133.5,16.4v18.4h5.6c5.8,0,9.7-4,9.7-9.1v-0.1c0-5.1-3.9-9.2-9.7-9.2
		C139.1,16.4,133.5,16.4,133.5,16.4z M132.5,15.5h6.6c6.3,0,10.7,4.4,10.7,10.1v0.1c0,5.7-4.4,10.1-10.7,10.1h-6.6V15.5z"/>
	<path id="Fill-110" class="st0" d="M159.4,27.4l-8.6-11.9h1.2l7.9,11l7.9-11h1.2l-8.6,11.9v8.3h-1L159.4,27.4L159.4,27.4z"/>
	<path id="Fill-112" class="st0" d="M0,15.5h3.5v8.4h9.6v-8.4h3.6v20.2h-3.6v-8.5H3.5v8.5H0V15.5z"/>
	<path id="Fill-114" class="st0" d="M49.6,15.5h3.8l6.1,9.5l6.1-9.5h3.8v20.2H66V21.2l-6.4,9.5h-0.1l-6.3-9.5v14.4h-3.5V15.5H49.6z"
		/>
	<path id="Fill-116" class="st0" d="M28.3,26.2L33.2,15l4.9,11.1h-9.8V26.2z M45,33.1L34.5,9.5c1-0.5,1.7-1.6,1.7-2.8
		c0-1.7-1.4-3.1-3.1-3.1C31.4,3.6,30,5,30,6.7c0,1.2,0.7,2.3,1.7,2.8L21.3,33.1c-0.4,0.9,0,1.9,0.9,2.3c0.9,0.4,1.9,0,2.3-0.9
		l2.2-4.9h12.9l2.2,4.9c0.3,0.7,0.9,1,1.6,1c0.2,0,0.5,0,0.7-0.1C45,35,45.4,34,45,33.1L45,33.1z"/>
	<path id="Fill-118" class="st0" d="M20.7,0.3c0.1-0.2,0.5-0.3,0.7-0.2c0.3,0.1,0.3,0.5,0.2,0.7c-1,1.7-1.5,3.7-1.5,5.7
		c0,1.9,0.5,3.7,1.3,5.4c0.1,0.1,0.1,0.3,0,0.4c0,0.1-0.1,0.2-0.3,0.3c-0.1,0-0.2,0.1-0.2,0.1c-0.2,0-0.4-0.1-0.5-0.3
		c-1-1.8-1.5-3.8-1.5-5.9C19,4.3,19.6,2.2,20.7,0.3"/>
	<path id="Fill-120" class="st0" d="M26.1,10.7c0.1,0,0.2,0,0.2-0.1c0.2-0.1,0.3-0.4,0.2-0.7c-0.6-1-0.8-2.2-0.8-3.3
		c0-1.3,0.4-2.6,1.1-3.8c0.2-0.2,0.1-0.6-0.2-0.7C26.4,2,26.1,2,25.9,2.3c-0.8,1.3-1.2,2.8-1.2,4.3c0,1.3,0.3,2.7,1,3.8
		C25.7,10.6,25.9,10.7,26.1,10.7"/>
	<path id="Fill-122" class="st0" d="M45.3,0.3c-0.1-0.2-0.5-0.3-0.7-0.2c-0.3,0.1-0.3,0.5-0.2,0.7c1,1.7,1.5,3.7,1.5,5.7
		c0,1.9-0.5,3.7-1.3,5.4c-0.1,0.1-0.1,0.3,0,0.4c0,0.1,0.1,0.2,0.3,0.3c0.1,0,0.2,0.1,0.2,0.1c0.2,0,0.4-0.1,0.5-0.3
		c1-1.8,1.5-3.8,1.5-5.9C47,4.3,46.4,2.2,45.3,0.3"/>
	<path id="Fill-124" class="st0" d="M39.9,10.7c-0.1,0-0.2,0-0.2-0.1c-0.2-0.1-0.3-0.4-0.2-0.7c0.5-1,0.8-2.2,0.8-3.3
		c0-1.3-0.4-2.6-1.1-3.8c-0.2-0.2-0.1-0.6,0.2-0.7C39.6,2,39.9,2,40.1,2.3c0.8,1.3,1.2,2.8,1.2,4.3c0,1.3-0.3,2.7-1,3.8
		C40.3,10.6,40.1,10.7,39.9,10.7"/>
</g>
</svg>
